<svg width="24" height="24" viewBox="0 0 24 24" fill="none" xmlns="http://www.w3.org/2000/svg">
<path d="M11.2908 11.9999L14.8308 8.45995C15.017 8.27259 15.1216 8.01913 15.1216 7.75495C15.1216 7.49076 15.017 7.23731 14.8308 7.04995C14.7378 6.95622 14.6272 6.88183 14.5054 6.83106C14.3835 6.78029 14.2528 6.75415 14.1208 6.75415C13.9888 6.75415 13.8581 6.78029 13.7362 6.83106C13.6144 6.88183 13.5038 6.95622 13.4108 7.04995L9.1708 11.2899C9.07707 11.3829 9.00268 11.4935 8.95191 11.6154C8.90114 11.7372 8.875 11.8679 8.875 11.9999C8.875 12.132 8.90114 12.2627 8.95191 12.3845C9.00268 12.5064 9.07707 12.617 9.1708 12.7099L13.4108 16.9999C13.5042 17.0926 13.6151 17.166 13.7369 17.2157C13.8587 17.2655 13.9892 17.2907 14.1208 17.2899C14.2524 17.2907 14.3829 17.2655 14.5047 17.2157C14.6265 17.166 14.7374 17.0926 14.8308 16.9999C15.017 16.8126 15.1216 16.5591 15.1216 16.2949C15.1216 16.0308 15.017 15.7773 14.8308 15.5899L11.2908 11.9999Z" fill="white"/>
</svg>
