<svg width="24" height="24" viewBox="0 0 24 24" fill="none" xmlns="http://www.w3.org/2000/svg">
<path d="M16.9997 13.4101L12.7097 9.17007C12.6167 9.07634 12.5061 9.00194 12.3843 8.95117C12.2624 8.90041 12.1317 8.87427 11.9997 8.87427C11.8677 8.87427 11.737 8.90041 11.6151 8.95117C11.4933 9.00194 11.3827 9.07634 11.2897 9.17007L7.0497 13.4101C6.95598 13.503 6.88158 13.6136 6.83081 13.7355C6.78004 13.8573 6.75391 13.9881 6.75391 14.1201C6.75391 14.2521 6.78004 14.3828 6.83081 14.5046C6.88158 14.6265 6.95598 14.7371 7.0497 14.8301C7.23707 15.0163 7.49052 15.1209 7.7547 15.1209C8.01889 15.1209 8.27234 15.0163 8.4597 14.8301L11.9997 11.2901L15.5397 14.8301C15.726 15.0148 15.9774 15.119 16.2397 15.1201C16.3713 15.1208 16.5018 15.0956 16.6236 15.0458C16.7454 14.9961 16.8563 14.9227 16.9497 14.8301C17.0468 14.7404 17.1251 14.6325 17.1802 14.5124C17.2353 14.3923 17.2661 14.2625 17.2708 14.1305C17.2754 13.9985 17.2539 13.8668 17.2073 13.7432C17.1608 13.6195 17.0902 13.5063 16.9997 13.4101Z" fill="white"/>
</svg>
