<svg width="24" height="24" viewBox="0 0 24 24" fill="none" xmlns="http://www.w3.org/2000/svg">
<path d="M21.1696 2.06012C20.4528 1.93665 19.7269 1.8731 18.9996 1.87012C16.518 1.86809 14.0881 2.57969 11.9996 3.92012C9.90574 2.59729 7.47625 1.90315 4.9996 1.92012C4.27224 1.9231 3.5464 1.98665 2.8296 2.11012C2.5948 2.1506 2.38218 2.27358 2.23001 2.45691C2.07784 2.64025 1.99613 2.87189 1.9996 3.11012V15.1101C1.99745 15.2571 2.02772 15.4027 2.08825 15.5366C2.14877 15.6705 2.23806 15.7894 2.34977 15.8849C2.46148 15.9803 2.59285 16.05 2.73455 16.089C2.87625 16.1279 3.02479 16.1351 3.1696 16.1101C4.60262 15.862 6.0708 15.9032 7.48766 16.2312C8.90453 16.5592 10.2414 17.1675 11.4196 18.0201L11.5396 18.0901H11.6496C11.7605 18.1363 11.8795 18.1601 11.9996 18.1601C12.1197 18.1601 12.2387 18.1363 12.3496 18.0901H12.4596L12.5796 18.0201C13.7496 17.1484 15.0826 16.5205 16.4997 16.1735C17.9169 15.8265 19.3893 15.7675 20.8296 16.0001C20.9744 16.0251 21.1229 16.0179 21.2646 15.979C21.4063 15.94 21.5377 15.8703 21.6494 15.7749C21.7611 15.6794 21.8504 15.5605 21.9109 15.4266C21.9715 15.2927 22.0017 15.1471 21.9996 15.0001V3.00012C21.9892 2.77228 21.9012 2.55483 21.7502 2.38386C21.5993 2.21289 21.3944 2.09866 21.1696 2.06012ZM10.9996 15.3501C9.14948 14.3768 7.09011 13.8688 4.9996 13.8701C4.6696 13.8701 4.3396 13.8701 3.9996 13.8701V3.87012C4.33265 3.85093 4.66654 3.85093 4.9996 3.87012C7.13298 3.86776 9.21981 4.49381 10.9996 5.67012V15.3501ZM19.9996 13.9101C19.6596 13.9101 19.3296 13.9101 18.9996 13.9101C16.9091 13.9088 14.8497 14.4168 12.9996 15.3901V5.67012C14.7794 4.49381 16.8662 3.86776 18.9996 3.87012C19.3327 3.85093 19.6665 3.85093 19.9996 3.87012V13.9101ZM21.1696 18.0601C20.4528 17.9367 19.7269 17.8731 18.9996 17.8701C16.518 17.8681 14.0881 18.5797 11.9996 19.9201C9.91111 18.5797 7.48123 17.8681 4.9996 17.8701C4.27224 17.8731 3.5464 17.9367 2.8296 18.0601C2.69942 18.0808 2.57462 18.127 2.46236 18.196C2.3501 18.2651 2.2526 18.3557 2.17546 18.4625C2.09833 18.5694 2.04308 18.6905 2.0129 18.8188C1.98272 18.9471 1.9782 19.0801 1.9996 19.2101C2.05042 19.4698 2.20209 19.6988 2.42139 19.8468C2.64069 19.9949 2.90974 20.05 3.1696 20.0001C4.60262 19.752 6.0708 19.7932 7.48766 20.1212C8.90453 20.4492 10.2414 21.0575 11.4196 21.9101C11.589 22.0307 11.7917 22.0955 11.9996 22.0955C12.2075 22.0955 12.4102 22.0307 12.5796 21.9101C13.7578 21.0575 15.0947 20.4492 16.5115 20.1212C17.9284 19.7932 19.3966 19.752 20.8296 20.0001C21.0895 20.05 21.3585 19.9949 21.5778 19.8468C21.7971 19.6988 21.9488 19.4698 21.9996 19.2101C22.021 19.0801 22.0165 18.9471 21.9863 18.8188C21.9561 18.6905 21.9009 18.5694 21.8237 18.4625C21.7466 18.3557 21.6491 18.2651 21.5368 18.196C21.4246 18.127 21.2998 18.0808 21.1696 18.0601V18.0601Z" fill="#f9d640"/>
</svg>
