<svg width="24" height="24" viewBox="0 0 24 24" fill="none" xmlns="http://www.w3.org/2000/svg">
<path d="M20.4705 2.00002H3.53055C3.34013 1.99737 3.15105 2.03227 2.97411 2.1027C2.79718 2.17314 2.63585 2.27774 2.49934 2.41053C2.36284 2.54332 2.25383 2.7017 2.17854 2.87663C2.10325 3.05155 2.06316 3.2396 2.06055 3.43002V20.57C2.06316 20.7604 2.10325 20.9485 2.17854 21.1234C2.25383 21.2983 2.36284 21.4567 2.49934 21.5895C2.63585 21.7223 2.79718 21.8269 2.97411 21.8973C3.15105 21.9678 3.34013 22.0027 3.53055 22H20.4705C20.661 22.0027 20.85 21.9678 21.027 21.8973C21.2039 21.8269 21.3652 21.7223 21.5017 21.5895C21.6383 21.4567 21.7473 21.2983 21.8226 21.1234C21.8978 20.9485 21.9379 20.7604 21.9405 20.57V3.43002C21.9379 3.2396 21.8978 3.05155 21.8226 2.87663C21.7473 2.7017 21.6383 2.54332 21.5017 2.41053C21.3652 2.27774 21.2039 2.17314 21.027 2.1027C20.85 2.03227 20.661 1.99737 20.4705 2.00002V2.00002ZM8.09055 18.74H5.09055V9.74002H8.09055V18.74ZM6.59055 8.48002C6.17681 8.48002 5.78002 8.31566 5.48746 8.0231C5.1949 7.73055 5.03055 7.33376 5.03055 6.92002C5.03055 6.50628 5.1949 6.10949 5.48746 5.81693C5.78002 5.52437 6.17681 5.36002 6.59055 5.36002C6.81024 5.3351 7.03272 5.35687 7.24342 5.4239C7.45412 5.49093 7.64829 5.60171 7.8132 5.74898C7.97812 5.89625 8.11007 6.0767 8.20042 6.2785C8.29076 6.4803 8.33746 6.69891 8.33746 6.92002C8.33746 7.14112 8.29076 7.35973 8.20042 7.56154C8.11007 7.76334 7.97812 7.94378 7.8132 8.09106C7.64829 8.23833 7.45412 8.34911 7.24342 8.41613C7.03272 8.48316 6.81024 8.50493 6.59055 8.48002V8.48002ZM18.9105 18.74H15.9105V13.91C15.9105 12.7 15.4805 11.91 14.3905 11.91C14.0532 11.9125 13.7247 12.0183 13.4494 12.2132C13.174 12.4081 12.965 12.6827 12.8505 13C12.7723 13.2351 12.7384 13.4826 12.7505 13.73V18.73H9.75055C9.75055 18.73 9.75055 10.55 9.75055 9.73002H12.7505V11C13.0231 10.5271 13.4195 10.1375 13.897 9.87322C14.3745 9.6089 14.9151 9.47987 15.4605 9.50002C17.4605 9.50002 18.9105 10.79 18.9105 13.56V18.74Z" fill="white"/>
</svg>
